G04 Layer_Physical_Order=2*
G04 Layer_Color=16737792*
%FSLAX25Y25*%
%MOIN*%
G70*
G01*
G75*
%ADD14C,0.25000*%
%ADD15C,0.06500*%
%ADD16R,0.06500X0.06500*%
%ADD17C,0.40000*%
%ADD18C,0.24000*%
%ADD19R,0.06500X0.06500*%
%ADD20C,0.05000*%
G36*
X407500Y396616D02*
X407500Y360000D01*
X446116Y360000D01*
X446470Y359647D01*
Y42500D01*
X407500D01*
Y3530D01*
X42854D01*
X42500Y3884D01*
X42500Y42500D01*
X3530Y42500D01*
Y360000D01*
X42500D01*
X42500Y396970D01*
X407147D01*
X407500Y396616D01*
D02*
G37*
%LPC*%
G36*
X175000Y260780D02*
X173775Y260660D01*
X172597Y260302D01*
X172120Y260048D01*
X164500D01*
X163064Y259858D01*
X161726Y259304D01*
X160577Y258423D01*
X160577Y258423D01*
X158077Y255923D01*
X157196Y254774D01*
X156642Y253436D01*
X156453Y252000D01*
Y234500D01*
Y214500D01*
Y194500D01*
Y174500D01*
Y154500D01*
Y78500D01*
X156642Y77064D01*
X157196Y75726D01*
X158077Y74577D01*
X203077Y29577D01*
X204226Y28696D01*
X205564Y28142D01*
X207000Y27953D01*
X266453D01*
Y23078D01*
X265952Y22841D01*
X265489Y23222D01*
X264403Y23802D01*
X263225Y24160D01*
X262000Y24280D01*
X260775Y24160D01*
X259597Y23802D01*
X258511Y23222D01*
X257559Y22441D01*
X257250Y22064D01*
X256750D01*
X256441Y22441D01*
X255489Y23222D01*
X254403Y23802D01*
X253225Y24160D01*
X252000Y24280D01*
X250775Y24160D01*
X249597Y23802D01*
X248511Y23222D01*
X247559Y22441D01*
X247250Y22064D01*
X246750D01*
X246441Y22441D01*
X245489Y23222D01*
X244403Y23802D01*
X243225Y24160D01*
X242000Y24280D01*
X240775Y24160D01*
X239597Y23802D01*
X238511Y23222D01*
X237559Y22441D01*
X237250Y22064D01*
X236750D01*
X236441Y22441D01*
X235489Y23222D01*
X234403Y23802D01*
X233225Y24160D01*
X232000Y24280D01*
X230775Y24160D01*
X229597Y23802D01*
X228511Y23222D01*
X227559Y22441D01*
X227250Y22064D01*
X226750D01*
X226441Y22441D01*
X225489Y23222D01*
X224403Y23802D01*
X223225Y24160D01*
X222000Y24280D01*
X220775Y24160D01*
X219597Y23802D01*
X218511Y23222D01*
X217559Y22441D01*
X217250Y22064D01*
X216750D01*
X216441Y22441D01*
X215489Y23222D01*
X214403Y23802D01*
X213225Y24160D01*
X212000Y24280D01*
X210775Y24160D01*
X209597Y23802D01*
X208511Y23222D01*
X207559Y22441D01*
X207250Y22064D01*
X206750D01*
X206441Y22441D01*
X205489Y23222D01*
X204403Y23802D01*
X203225Y24160D01*
X202000Y24280D01*
X200775Y24160D01*
X199597Y23802D01*
X198511Y23222D01*
X197559Y22441D01*
X197250Y22064D01*
X196750D01*
X196441Y22441D01*
X195489Y23222D01*
X194403Y23802D01*
X193225Y24160D01*
X192000Y24280D01*
X190775Y24160D01*
X189597Y23802D01*
X188511Y23222D01*
X187559Y22441D01*
X187250Y22064D01*
X186750D01*
X186441Y22441D01*
X185489Y23222D01*
X184403Y23802D01*
X183225Y24160D01*
X182000Y24280D01*
X180775Y24160D01*
X179597Y23802D01*
X178511Y23222D01*
X177559Y22441D01*
X177250Y22064D01*
X176750D01*
X176441Y22441D01*
X175489Y23222D01*
X174403Y23802D01*
X173225Y24160D01*
X172000Y24280D01*
X170775Y24160D01*
X169597Y23802D01*
X168511Y23222D01*
X167559Y22441D01*
X167250Y22064D01*
X166750D01*
X166441Y22441D01*
X165489Y23222D01*
X164403Y23802D01*
X163225Y24160D01*
X162000Y24280D01*
X160775Y24160D01*
X159597Y23802D01*
X158511Y23222D01*
X157559Y22441D01*
X157250Y22064D01*
X156750D01*
X156441Y22441D01*
X155489Y23222D01*
X154403Y23802D01*
X153225Y24160D01*
X152000Y24280D01*
X150775Y24160D01*
X149597Y23802D01*
X148511Y23222D01*
X147559Y22441D01*
X146778Y21489D01*
X146198Y20403D01*
X145840Y19225D01*
X145720Y18000D01*
X145840Y16775D01*
X146198Y15597D01*
X146778Y14511D01*
X147559Y13559D01*
X148511Y12778D01*
X149597Y12198D01*
X150775Y11840D01*
X152000Y11720D01*
X153225Y11840D01*
X154403Y12198D01*
X155489Y12778D01*
X156441Y13559D01*
X156750Y13936D01*
X157250D01*
X157559Y13559D01*
X158511Y12778D01*
X159597Y12198D01*
X160775Y11840D01*
X162000Y11720D01*
X163225Y11840D01*
X164403Y12198D01*
X165489Y12778D01*
X166441Y13559D01*
X166750Y13936D01*
X167250D01*
X167559Y13559D01*
X168511Y12778D01*
X169597Y12198D01*
X170775Y11840D01*
X172000Y11720D01*
X173225Y11840D01*
X174403Y12198D01*
X175489Y12778D01*
X176441Y13559D01*
X176750Y13936D01*
X177250D01*
X177559Y13559D01*
X178511Y12778D01*
X179597Y12198D01*
X180775Y11840D01*
X182000Y11720D01*
X183225Y11840D01*
X184403Y12198D01*
X185489Y12778D01*
X186441Y13559D01*
X186750Y13936D01*
X187250D01*
X187559Y13559D01*
X188511Y12778D01*
X189597Y12198D01*
X190775Y11840D01*
X192000Y11720D01*
X193225Y11840D01*
X194403Y12198D01*
X195489Y12778D01*
X196441Y13559D01*
X196750Y13936D01*
X197250D01*
X197559Y13559D01*
X198511Y12778D01*
X199597Y12198D01*
X200775Y11840D01*
X202000Y11720D01*
X203225Y11840D01*
X204403Y12198D01*
X205489Y12778D01*
X206441Y13559D01*
X206750Y13936D01*
X207250D01*
X207559Y13559D01*
X208511Y12778D01*
X209597Y12198D01*
X210775Y11840D01*
X212000Y11720D01*
X213225Y11840D01*
X214403Y12198D01*
X215489Y12778D01*
X216441Y13559D01*
X216750Y13936D01*
X217250D01*
X217559Y13559D01*
X218511Y12778D01*
X219597Y12198D01*
X220775Y11840D01*
X222000Y11720D01*
X223225Y11840D01*
X224403Y12198D01*
X225489Y12778D01*
X226441Y13559D01*
X226750Y13936D01*
X227250D01*
X227559Y13559D01*
X228511Y12778D01*
X229597Y12198D01*
X230775Y11840D01*
X232000Y11720D01*
X233225Y11840D01*
X234403Y12198D01*
X235489Y12778D01*
X236441Y13559D01*
X236750Y13936D01*
X237250D01*
X237559Y13559D01*
X238511Y12778D01*
X239597Y12198D01*
X240775Y11840D01*
X242000Y11720D01*
X243225Y11840D01*
X244403Y12198D01*
X245489Y12778D01*
X246441Y13559D01*
X246750Y13936D01*
X247250D01*
X247559Y13559D01*
X248511Y12778D01*
X249597Y12198D01*
X250775Y11840D01*
X252000Y11720D01*
X253225Y11840D01*
X254403Y12198D01*
X255489Y12778D01*
X256441Y13559D01*
X256750Y13936D01*
X257250D01*
X257559Y13559D01*
X258511Y12778D01*
X259597Y12198D01*
X260775Y11840D01*
X262000Y11720D01*
X263225Y11840D01*
X264403Y12198D01*
X265489Y12778D01*
X266441Y13559D01*
X266750Y13936D01*
X267250D01*
X267559Y13559D01*
X268511Y12778D01*
X269597Y12198D01*
X270775Y11840D01*
X272000Y11720D01*
X273225Y11840D01*
X274403Y12198D01*
X275489Y12778D01*
X276441Y13559D01*
X276750Y13936D01*
X277250D01*
X277559Y13559D01*
X278511Y12778D01*
X279597Y12198D01*
X280775Y11840D01*
X282000Y11720D01*
X283225Y11840D01*
X284403Y12198D01*
X285250Y12650D01*
X285750Y12368D01*
Y11750D01*
X298250D01*
Y24250D01*
X297548D01*
Y34000D01*
X297358Y35436D01*
X296804Y36774D01*
X295923Y37923D01*
X294774Y38804D01*
X293436Y39358D01*
X292048Y39541D01*
Y144500D01*
Y164500D01*
Y184500D01*
Y204500D01*
Y224500D01*
Y233774D01*
X292048Y233774D01*
X291858Y235210D01*
X291467Y236156D01*
X291304Y236548D01*
X290423Y237697D01*
X290423Y237697D01*
X281047Y247073D01*
X280104Y247797D01*
X279750Y248150D01*
X279750D01*
Y260650D01*
X267250D01*
Y248150D01*
X267868D01*
X268150Y247650D01*
X267698Y246803D01*
X267340Y245625D01*
X267220Y244400D01*
X267340Y243175D01*
X267698Y241997D01*
X268278Y240911D01*
X269059Y239959D01*
X269436Y239650D01*
Y239150D01*
X269059Y238841D01*
X268278Y237889D01*
X267698Y236803D01*
X267340Y235625D01*
X267220Y234400D01*
X267340Y233175D01*
X267698Y231997D01*
X268278Y230911D01*
X269059Y229959D01*
X269436Y229650D01*
Y229150D01*
X269059Y228841D01*
X268278Y227889D01*
X267698Y226803D01*
X267340Y225625D01*
X267220Y224400D01*
X267340Y223175D01*
X267698Y221997D01*
X268278Y220911D01*
X269059Y219959D01*
X269436Y219650D01*
Y219150D01*
X269059Y218841D01*
X268278Y217889D01*
X267698Y216803D01*
X267340Y215625D01*
X267220Y214400D01*
X267340Y213175D01*
X267698Y211997D01*
X268278Y210911D01*
X269059Y209959D01*
X269436Y209650D01*
Y209150D01*
X269059Y208841D01*
X268278Y207889D01*
X267698Y206803D01*
X267340Y205625D01*
X267220Y204400D01*
X267340Y203175D01*
X267698Y201997D01*
X268278Y200911D01*
X269059Y199959D01*
X269436Y199650D01*
Y199150D01*
X269059Y198841D01*
X268278Y197889D01*
X267698Y196803D01*
X267340Y195625D01*
X267220Y194400D01*
X267340Y193175D01*
X267698Y191997D01*
X268278Y190911D01*
X269059Y189959D01*
X269436Y189650D01*
Y189150D01*
X269059Y188841D01*
X268278Y187889D01*
X267698Y186803D01*
X267340Y185625D01*
X267220Y184400D01*
X267340Y183175D01*
X267698Y181997D01*
X268278Y180911D01*
X269059Y179959D01*
X269436Y179650D01*
Y179150D01*
X269059Y178841D01*
X268278Y177889D01*
X267698Y176803D01*
X267340Y175625D01*
X267220Y174400D01*
X267340Y173175D01*
X267698Y171997D01*
X268278Y170911D01*
X269059Y169959D01*
X269436Y169650D01*
Y169150D01*
X269059Y168841D01*
X268278Y167889D01*
X267698Y166803D01*
X267340Y165625D01*
X267220Y164400D01*
X267340Y163175D01*
X267698Y161997D01*
X268278Y160911D01*
X269059Y159959D01*
X269436Y159650D01*
Y159150D01*
X269059Y158841D01*
X268278Y157889D01*
X267698Y156803D01*
X267340Y155625D01*
X267220Y154400D01*
X267340Y153175D01*
X267698Y151997D01*
X268278Y150911D01*
X269059Y149959D01*
X269436Y149650D01*
Y149150D01*
X269059Y148841D01*
X268278Y147889D01*
X267698Y146803D01*
X267340Y145625D01*
X267220Y144400D01*
X267340Y143175D01*
X267698Y141997D01*
X268278Y140911D01*
X269059Y139959D01*
X270011Y139178D01*
X271097Y138598D01*
X272275Y138240D01*
X273500Y138120D01*
X274725Y138240D01*
X275903Y138598D01*
X276567Y138953D01*
X280953D01*
Y39410D01*
X280564Y39358D01*
X279814Y39048D01*
X209298D01*
X167548Y80798D01*
Y148952D01*
X168750D01*
Y138250D01*
X181250D01*
Y150750D01*
X180632D01*
X180350Y151250D01*
X180802Y152097D01*
X181160Y153275D01*
X181280Y154500D01*
X181160Y155725D01*
X180802Y156903D01*
X180222Y157989D01*
X179441Y158941D01*
X179064Y159250D01*
Y159750D01*
X179441Y160059D01*
X180222Y161011D01*
X180802Y162097D01*
X181160Y163275D01*
X181280Y164500D01*
X181160Y165725D01*
X180802Y166903D01*
X180222Y167989D01*
X179441Y168941D01*
X179064Y169250D01*
Y169750D01*
X179441Y170059D01*
X180222Y171011D01*
X180802Y172097D01*
X181160Y173275D01*
X181280Y174500D01*
X181160Y175725D01*
X180802Y176903D01*
X180222Y177989D01*
X179441Y178941D01*
X179064Y179250D01*
Y179750D01*
X179441Y180059D01*
X180222Y181011D01*
X180802Y182097D01*
X181160Y183275D01*
X181280Y184500D01*
X181160Y185725D01*
X180802Y186903D01*
X180222Y187989D01*
X179441Y188941D01*
X179064Y189250D01*
Y189750D01*
X179441Y190059D01*
X180222Y191011D01*
X180802Y192097D01*
X181160Y193275D01*
X181280Y194500D01*
X181160Y195725D01*
X180802Y196903D01*
X180222Y197989D01*
X179441Y198941D01*
X179064Y199250D01*
Y199750D01*
X179441Y200059D01*
X180222Y201011D01*
X180802Y202097D01*
X181160Y203275D01*
X181280Y204500D01*
X181160Y205725D01*
X180802Y206903D01*
X180222Y207989D01*
X179441Y208941D01*
X179064Y209250D01*
Y209750D01*
X179441Y210059D01*
X180222Y211011D01*
X180802Y212097D01*
X181160Y213275D01*
X181280Y214500D01*
X181160Y215725D01*
X180802Y216903D01*
X180222Y217989D01*
X179441Y218941D01*
X179064Y219250D01*
Y219750D01*
X179441Y220059D01*
X180222Y221011D01*
X180802Y222097D01*
X181160Y223275D01*
X181280Y224500D01*
X181160Y225725D01*
X180802Y226903D01*
X180222Y227989D01*
X179441Y228941D01*
X179064Y229250D01*
Y229750D01*
X179441Y230059D01*
X180222Y231011D01*
X180802Y232097D01*
X181160Y233275D01*
X181280Y234500D01*
X181160Y235725D01*
X180802Y236903D01*
X180222Y237989D01*
X179441Y238941D01*
X179064Y239250D01*
Y239750D01*
X179441Y240059D01*
X180222Y241011D01*
X180802Y242097D01*
X181160Y243275D01*
X181280Y244500D01*
X181160Y245725D01*
X180802Y246903D01*
X180222Y247989D01*
X179441Y248941D01*
X179064Y249250D01*
Y249750D01*
X179441Y250059D01*
X180222Y251011D01*
X180802Y252097D01*
X181160Y253275D01*
X181280Y254500D01*
X181160Y255725D01*
X180802Y256903D01*
X180222Y257989D01*
X179441Y258941D01*
X178489Y259722D01*
X177403Y260302D01*
X176225Y260660D01*
X175000Y260780D01*
D02*
G37*
G36*
X373500Y359085D02*
X371146Y358900D01*
X368850Y358348D01*
X366669Y357445D01*
X364656Y356211D01*
X362861Y354678D01*
X361327Y352883D01*
X360094Y350869D01*
X359190Y348688D01*
X358639Y346392D01*
X358454Y344039D01*
X358639Y341685D01*
X359190Y339389D01*
X360094Y337208D01*
X361327Y335194D01*
X362861Y333399D01*
X364656Y331866D01*
X366669Y330632D01*
X366841Y330561D01*
X366824Y330061D01*
X364679Y329333D01*
X361975Y328000D01*
X359468Y326325D01*
X357202Y324337D01*
X355214Y322070D01*
X353539Y319563D01*
X352205Y316859D01*
X351236Y314004D01*
X350648Y311047D01*
X350451Y308039D01*
X350648Y305030D01*
X351236Y302073D01*
X352205Y299218D01*
X353539Y296514D01*
X355214Y294007D01*
X357202Y291740D01*
X359468Y289752D01*
X361975Y288077D01*
X364538Y286813D01*
X364585Y286653D01*
Y286424D01*
X364538Y286264D01*
X361975Y285000D01*
X359468Y283325D01*
X357202Y281337D01*
X355214Y279070D01*
X353539Y276563D01*
X352205Y273859D01*
X351236Y271004D01*
X350648Y268047D01*
X350451Y265039D01*
X350648Y262030D01*
X351236Y259073D01*
X352205Y256218D01*
X353539Y253514D01*
X355214Y251007D01*
X357202Y248740D01*
X359468Y246752D01*
X361975Y245077D01*
X364538Y243813D01*
X364585Y243653D01*
Y243424D01*
X364538Y243264D01*
X361975Y242000D01*
X359468Y240325D01*
X357202Y238337D01*
X355214Y236070D01*
X353539Y233563D01*
X352205Y230859D01*
X351236Y228004D01*
X350648Y225047D01*
X350451Y222039D01*
X350648Y219030D01*
X351236Y216073D01*
X352205Y213218D01*
X353539Y210514D01*
X355214Y208007D01*
X357202Y205740D01*
X359468Y203752D01*
X361975Y202077D01*
X364538Y200813D01*
X364585Y200653D01*
Y200424D01*
X364538Y200264D01*
X361975Y199000D01*
X359468Y197325D01*
X357202Y195337D01*
X355214Y193070D01*
X353539Y190563D01*
X352205Y187859D01*
X351236Y185004D01*
X350648Y182047D01*
X350451Y179039D01*
X350648Y176030D01*
X351236Y173073D01*
X352205Y170218D01*
X353539Y167514D01*
X355214Y165007D01*
X357202Y162740D01*
X359468Y160752D01*
X361975Y159077D01*
X364538Y157813D01*
X364585Y157653D01*
Y157424D01*
X364538Y157264D01*
X361975Y156000D01*
X359468Y154325D01*
X357202Y152337D01*
X355214Y150070D01*
X353539Y147563D01*
X352205Y144859D01*
X351236Y142004D01*
X350648Y139047D01*
X350451Y136039D01*
X350648Y133030D01*
X351236Y130073D01*
X352205Y127218D01*
X353539Y124514D01*
X355214Y122007D01*
X357202Y119740D01*
X359468Y117752D01*
X361975Y116077D01*
X364538Y114813D01*
X364585Y114653D01*
Y114424D01*
X364538Y114264D01*
X361975Y113000D01*
X359468Y111325D01*
X357202Y109337D01*
X355214Y107070D01*
X353539Y104563D01*
X352205Y101859D01*
X351236Y99004D01*
X350648Y96047D01*
X350451Y93039D01*
X350648Y90030D01*
X351236Y87073D01*
X352205Y84218D01*
X353539Y81514D01*
X355214Y79007D01*
X357202Y76740D01*
X359468Y74752D01*
X361975Y73077D01*
X364679Y71744D01*
X366824Y71016D01*
X366841Y70516D01*
X366669Y70445D01*
X364656Y69211D01*
X362861Y67678D01*
X361327Y65883D01*
X360094Y63870D01*
X359190Y61688D01*
X358639Y59392D01*
X358454Y57039D01*
X358639Y54685D01*
X359190Y52389D01*
X360094Y50208D01*
X361327Y48195D01*
X362861Y46399D01*
X364656Y44866D01*
X366669Y43632D01*
X368850Y42729D01*
X371146Y42177D01*
X373500Y41992D01*
X375854Y42177D01*
X378150Y42729D01*
X380331Y43632D01*
X382344Y44866D01*
X384139Y46399D01*
X385673Y48195D01*
X386906Y50208D01*
X387810Y52389D01*
X388361Y54685D01*
X388546Y57039D01*
X388361Y59392D01*
X387810Y61688D01*
X386906Y63870D01*
X385673Y65883D01*
X384139Y67678D01*
X382344Y69211D01*
X380331Y70445D01*
X380159Y70516D01*
X380176Y71016D01*
X382321Y71744D01*
X385025Y73077D01*
X387532Y74752D01*
X389798Y76740D01*
X391786Y79007D01*
X393461Y81514D01*
X394795Y84218D01*
X395764Y87073D01*
X396352Y90030D01*
X396549Y93039D01*
X396352Y96047D01*
X395764Y99004D01*
X394795Y101859D01*
X393461Y104563D01*
X391786Y107070D01*
X389798Y109337D01*
X387532Y111325D01*
X385025Y113000D01*
X382462Y114264D01*
X382415Y114424D01*
Y114653D01*
X382462Y114813D01*
X385025Y116077D01*
X387532Y117752D01*
X389798Y119740D01*
X391786Y122007D01*
X393461Y124514D01*
X394795Y127218D01*
X395764Y130073D01*
X396352Y133030D01*
X396549Y136039D01*
X396352Y139047D01*
X395764Y142004D01*
X394795Y144859D01*
X393461Y147563D01*
X391786Y150070D01*
X389798Y152337D01*
X387532Y154325D01*
X385025Y156000D01*
X382462Y157264D01*
X382415Y157424D01*
Y157653D01*
X382462Y157813D01*
X385025Y159077D01*
X387532Y160752D01*
X389798Y162740D01*
X391786Y165007D01*
X393461Y167514D01*
X394795Y170218D01*
X395764Y173073D01*
X396352Y176030D01*
X396549Y179039D01*
X396352Y182047D01*
X395764Y185004D01*
X394795Y187859D01*
X393461Y190563D01*
X391786Y193070D01*
X389798Y195337D01*
X387532Y197325D01*
X385025Y199000D01*
X382462Y200264D01*
X382415Y200424D01*
Y200653D01*
X382462Y200813D01*
X385025Y202077D01*
X387532Y203752D01*
X389798Y205740D01*
X391786Y208007D01*
X393461Y210514D01*
X394795Y213218D01*
X395764Y216073D01*
X396352Y219030D01*
X396549Y222039D01*
X396352Y225047D01*
X395764Y228004D01*
X394795Y230859D01*
X393461Y233563D01*
X391786Y236070D01*
X389798Y238337D01*
X387532Y240325D01*
X385025Y242000D01*
X382462Y243264D01*
X382415Y243424D01*
Y243653D01*
X382462Y243813D01*
X385025Y245077D01*
X387532Y246752D01*
X389798Y248740D01*
X391786Y251007D01*
X393461Y253514D01*
X394795Y256218D01*
X395764Y259073D01*
X396352Y262030D01*
X396549Y265039D01*
X396352Y268047D01*
X395764Y271004D01*
X394795Y273859D01*
X393461Y276563D01*
X391786Y279070D01*
X389798Y281337D01*
X387532Y283325D01*
X385025Y285000D01*
X382462Y286264D01*
X382415Y286424D01*
Y286653D01*
X382462Y286813D01*
X385025Y288077D01*
X387532Y289752D01*
X389798Y291740D01*
X391786Y294007D01*
X393461Y296514D01*
X394795Y299218D01*
X395764Y302073D01*
X396352Y305030D01*
X396549Y308039D01*
X396352Y311047D01*
X395764Y314004D01*
X394795Y316859D01*
X393461Y319563D01*
X391786Y322070D01*
X389798Y324337D01*
X387532Y326325D01*
X385025Y328000D01*
X382321Y329333D01*
X380176Y330061D01*
X380159Y330561D01*
X380331Y330632D01*
X382344Y331866D01*
X384139Y333399D01*
X385673Y335194D01*
X386906Y337208D01*
X387810Y339389D01*
X388361Y341685D01*
X388546Y344039D01*
X388361Y346392D01*
X387810Y348688D01*
X386906Y350869D01*
X385673Y352883D01*
X384139Y354678D01*
X382344Y356211D01*
X380331Y357445D01*
X378150Y358348D01*
X375854Y358900D01*
X373500Y359085D01*
D02*
G37*
G36*
X75000Y357546D02*
X72646Y357361D01*
X70350Y356810D01*
X68169Y355906D01*
X66156Y354673D01*
X64361Y353139D01*
X62827Y351344D01*
X61594Y349331D01*
X60690Y347150D01*
X60139Y344854D01*
X59954Y342500D01*
X60139Y340146D01*
X60690Y337850D01*
X61594Y335669D01*
X62827Y333656D01*
X64361Y331861D01*
X66156Y330327D01*
X68169Y329094D01*
X68340Y329023D01*
X68324Y328523D01*
X66179Y327795D01*
X63475Y326461D01*
X60968Y324786D01*
X58702Y322798D01*
X56714Y320532D01*
X55039Y318025D01*
X53705Y315321D01*
X52736Y312466D01*
X52148Y309508D01*
X51951Y306500D01*
X52148Y303491D01*
X52736Y300534D01*
X53705Y297679D01*
X55039Y294975D01*
X56714Y292468D01*
X58702Y290202D01*
X60968Y288214D01*
X63475Y286539D01*
X66038Y285275D01*
X66085Y285115D01*
Y284886D01*
X66038Y284725D01*
X63475Y283461D01*
X60968Y281786D01*
X58702Y279798D01*
X56714Y277532D01*
X55039Y275025D01*
X53705Y272321D01*
X52736Y269466D01*
X52148Y266509D01*
X51951Y263500D01*
X52148Y260491D01*
X52736Y257534D01*
X53705Y254679D01*
X55039Y251975D01*
X56714Y249468D01*
X58702Y247202D01*
X60968Y245214D01*
X63475Y243539D01*
X66038Y242275D01*
X66085Y242114D01*
Y241885D01*
X66038Y241725D01*
X63475Y240461D01*
X60968Y238786D01*
X58702Y236798D01*
X56714Y234532D01*
X55039Y232025D01*
X53705Y229321D01*
X52736Y226466D01*
X52148Y223509D01*
X51951Y220500D01*
X52148Y217492D01*
X52736Y214534D01*
X53705Y211679D01*
X55039Y208975D01*
X56714Y206468D01*
X58702Y204202D01*
X60968Y202214D01*
X63475Y200539D01*
X66038Y199275D01*
X66085Y199115D01*
Y198886D01*
X66038Y198725D01*
X63475Y197461D01*
X60968Y195786D01*
X58702Y193798D01*
X56714Y191532D01*
X55039Y189025D01*
X53705Y186321D01*
X52736Y183466D01*
X52148Y180508D01*
X51951Y177500D01*
X52148Y174492D01*
X52736Y171534D01*
X53705Y168679D01*
X55039Y165975D01*
X56714Y163468D01*
X58702Y161202D01*
X60968Y159214D01*
X63475Y157539D01*
X66038Y156275D01*
X66085Y156114D01*
Y155886D01*
X66038Y155725D01*
X63475Y154461D01*
X60968Y152786D01*
X58702Y150798D01*
X56714Y148532D01*
X55039Y146025D01*
X53705Y143321D01*
X52736Y140466D01*
X52148Y137508D01*
X51951Y134500D01*
X52148Y131491D01*
X52736Y128534D01*
X53705Y125679D01*
X55039Y122975D01*
X56714Y120468D01*
X58702Y118202D01*
X60968Y116214D01*
X63475Y114539D01*
X66038Y113275D01*
X66085Y113115D01*
Y112885D01*
X66038Y112725D01*
X63475Y111461D01*
X60968Y109786D01*
X58702Y107798D01*
X56714Y105532D01*
X55039Y103025D01*
X53705Y100321D01*
X52736Y97466D01*
X52148Y94508D01*
X51951Y91500D01*
X52148Y88491D01*
X52736Y85534D01*
X53705Y82679D01*
X55039Y79975D01*
X56714Y77468D01*
X58702Y75202D01*
X60968Y73214D01*
X63475Y71539D01*
X66179Y70205D01*
X68324Y69477D01*
X68340Y68977D01*
X68169Y68906D01*
X66156Y67673D01*
X64361Y66139D01*
X62827Y64344D01*
X61594Y62331D01*
X60690Y60150D01*
X60139Y57854D01*
X59954Y55500D01*
X60139Y53146D01*
X60690Y50850D01*
X61594Y48669D01*
X62827Y46656D01*
X64361Y44861D01*
X66156Y43327D01*
X68169Y42094D01*
X70350Y41190D01*
X72646Y40639D01*
X75000Y40454D01*
X77354Y40639D01*
X79650Y41190D01*
X81831Y42094D01*
X83844Y43327D01*
X85639Y44861D01*
X87173Y46656D01*
X88406Y48669D01*
X89310Y50850D01*
X89861Y53146D01*
X90046Y55500D01*
X89861Y57854D01*
X89310Y60150D01*
X88406Y62331D01*
X87173Y64344D01*
X85639Y66139D01*
X83844Y67673D01*
X81831Y68906D01*
X81660Y68977D01*
X81676Y69477D01*
X83821Y70205D01*
X86525Y71539D01*
X89032Y73214D01*
X91298Y75202D01*
X93286Y77468D01*
X94961Y79975D01*
X96295Y82679D01*
X97264Y85534D01*
X97852Y88491D01*
X98049Y91500D01*
X97852Y94508D01*
X97264Y97466D01*
X96295Y100321D01*
X94961Y103025D01*
X93286Y105532D01*
X91298Y107798D01*
X89032Y109786D01*
X86525Y111461D01*
X83962Y112725D01*
X83915Y112885D01*
Y113115D01*
X83962Y113275D01*
X86525Y114539D01*
X89032Y116214D01*
X91298Y118202D01*
X93286Y120468D01*
X94961Y122975D01*
X96295Y125679D01*
X97264Y128534D01*
X97852Y131491D01*
X98049Y134500D01*
X97852Y137508D01*
X97264Y140466D01*
X96295Y143321D01*
X94961Y146025D01*
X93286Y148532D01*
X91298Y150798D01*
X89032Y152786D01*
X86525Y154461D01*
X83962Y155725D01*
X83915Y155886D01*
Y156114D01*
X83962Y156275D01*
X86525Y157539D01*
X89032Y159214D01*
X91298Y161202D01*
X93286Y163468D01*
X94961Y165975D01*
X96295Y168679D01*
X97264Y171534D01*
X97852Y174492D01*
X98049Y177500D01*
X97852Y180508D01*
X97264Y183466D01*
X96295Y186321D01*
X94961Y189025D01*
X93286Y191532D01*
X91298Y193798D01*
X89032Y195786D01*
X86525Y197461D01*
X83962Y198725D01*
X83915Y198886D01*
Y199115D01*
X83962Y199275D01*
X86525Y200539D01*
X89032Y202214D01*
X91298Y204202D01*
X93286Y206468D01*
X94961Y208975D01*
X96295Y211679D01*
X97264Y214534D01*
X97852Y217492D01*
X98049Y220500D01*
X97852Y223509D01*
X97264Y226466D01*
X96295Y229321D01*
X94961Y232025D01*
X93286Y234532D01*
X91298Y236798D01*
X89032Y238786D01*
X86525Y240461D01*
X83962Y241725D01*
X83915Y241885D01*
Y242114D01*
X83962Y242275D01*
X86525Y243539D01*
X89032Y245214D01*
X91298Y247202D01*
X93286Y249468D01*
X94961Y251975D01*
X96295Y254679D01*
X97264Y257534D01*
X97852Y260491D01*
X98049Y263500D01*
X97852Y266509D01*
X97264Y269466D01*
X96295Y272321D01*
X94961Y275025D01*
X93286Y277532D01*
X91298Y279798D01*
X89032Y281786D01*
X86525Y283461D01*
X83962Y284725D01*
X83915Y284886D01*
Y285115D01*
X83962Y285275D01*
X86525Y286539D01*
X89032Y288214D01*
X91298Y290202D01*
X93286Y292468D01*
X94961Y294975D01*
X96295Y297679D01*
X97264Y300534D01*
X97852Y303491D01*
X98049Y306500D01*
X97852Y309508D01*
X97264Y312466D01*
X96295Y315321D01*
X94961Y318025D01*
X93286Y320532D01*
X91298Y322798D01*
X89032Y324786D01*
X86525Y326461D01*
X83821Y327795D01*
X81676Y328523D01*
X81660Y329023D01*
X81831Y329094D01*
X83844Y330327D01*
X85639Y331861D01*
X87173Y333656D01*
X88406Y335669D01*
X89310Y337850D01*
X89861Y340146D01*
X90046Y342500D01*
X89861Y344854D01*
X89310Y347150D01*
X88406Y349331D01*
X87173Y351344D01*
X85639Y353139D01*
X83844Y354673D01*
X81831Y355906D01*
X79650Y356810D01*
X77354Y357361D01*
X75000Y357546D01*
D02*
G37*
%LPD*%
D14*
X430000Y20000D02*
D03*
X20000D02*
D03*
X430000Y380000D02*
D03*
X20000D02*
D03*
D15*
X273500Y164400D02*
D03*
Y184400D02*
D03*
Y194400D02*
D03*
Y234400D02*
D03*
Y244400D02*
D03*
Y224400D02*
D03*
Y214400D02*
D03*
Y204400D02*
D03*
Y174400D02*
D03*
Y154400D02*
D03*
Y144400D02*
D03*
X152000Y18000D02*
D03*
X162000D02*
D03*
X172000D02*
D03*
X202000D02*
D03*
X222000D02*
D03*
X232000D02*
D03*
X272000D02*
D03*
X282000D02*
D03*
X262000D02*
D03*
X252000D02*
D03*
X242000D02*
D03*
X212000D02*
D03*
X192000D02*
D03*
X182000D02*
D03*
X175000Y234500D02*
D03*
Y214500D02*
D03*
Y204500D02*
D03*
Y164500D02*
D03*
Y154500D02*
D03*
Y174500D02*
D03*
Y184500D02*
D03*
Y194500D02*
D03*
Y224500D02*
D03*
Y244500D02*
D03*
Y254500D02*
D03*
D16*
X273500Y254400D02*
D03*
X175000Y144500D02*
D03*
D17*
X373500Y265039D02*
D03*
Y222039D02*
D03*
Y308039D02*
D03*
Y179039D02*
D03*
Y93039D02*
D03*
Y136039D02*
D03*
X75000Y263500D02*
D03*
Y306500D02*
D03*
Y220500D02*
D03*
Y91500D02*
D03*
Y177500D02*
D03*
Y134500D02*
D03*
D18*
X373500Y57039D02*
D03*
Y344039D02*
D03*
X75000Y55500D02*
D03*
Y342500D02*
D03*
D19*
X292000Y18000D02*
D03*
D20*
X164500Y254500D02*
X175000D01*
X162000Y252000D02*
X164500Y254500D01*
X292000Y18000D02*
Y34000D01*
X282000Y18000D02*
Y34000D01*
X272000Y18000D02*
Y33500D01*
X162000Y154500D02*
X175000D01*
X162000Y78500D02*
Y154500D01*
Y174500D02*
X175000D01*
X162000Y154500D02*
Y174500D01*
Y194500D02*
X175000D01*
X162000Y174500D02*
Y194500D01*
Y214500D02*
X175000D01*
X162000Y194500D02*
Y214500D01*
Y234500D02*
X175000D01*
X162000Y214500D02*
Y234500D01*
Y252000D01*
X273500Y244400D02*
X274750Y243150D01*
X277124D01*
X286500Y233774D01*
X273600Y144500D02*
X286500D01*
Y33500D02*
Y144500D01*
X273600Y164500D02*
X286500D01*
Y144500D02*
Y164500D01*
X273600Y184500D02*
X286500D01*
Y164500D02*
Y184500D01*
X273600Y204500D02*
X286500D01*
Y184500D02*
Y204500D01*
X273600Y224500D02*
X286500D01*
Y204500D02*
Y224500D01*
Y233774D01*
X162000Y78500D02*
X207000Y33500D01*
X292000D01*
M02*
